M48
;DRILL file {Pcbnew (2013-jun-18)-testing} date Sun 14 Jul 2013 06:49:01 PM EEST
;FORMAT={-:-/ absolute / metric / decimal}
FMAT,2
METRIC,TZ
T1C0.900
T2C1.000
%
G90
G05
M71
T1
X13.335Y13.335
X13.335Y10.795
X13.335Y8.255
X13.335Y5.715
X15.875Y15.875
X15.875Y13.335
X15.875Y10.795
X15.875Y8.255
X15.875Y5.715
X15.875Y3.175
X18.415Y15.875
X18.415Y13.335
X18.415Y5.715
X18.415Y3.175
X20.955Y15.875
X20.955Y13.335
X20.955Y5.715
X20.955Y3.175
X23.495Y15.875
X23.495Y13.335
X23.495Y5.715
X23.495Y3.175
X26.035Y15.875
X26.035Y13.335
X26.035Y10.795
X26.035Y8.255
X26.035Y5.715
X26.035Y3.175
X28.575Y13.335
X28.575Y10.795
X28.575Y8.255
X28.575Y5.715
T2
X1.905Y17.145
X1.905Y1.905
X4.445Y17.145
X4.445Y1.905
X6.985Y17.145
X6.985Y1.905
X9.525Y17.145
X9.525Y1.905
X12.065Y17.145
X12.065Y1.905
X14.605Y17.145
X14.605Y1.905
X17.145Y17.145
X17.145Y1.905
X19.685Y17.145
X19.685Y1.905
X22.225Y17.145
X22.225Y1.905
X24.765Y17.145
X24.765Y1.905
X27.305Y17.145
X27.305Y1.905
X29.845Y17.145
X29.845Y1.905
X32.385Y17.145
X32.385Y1.905
X34.925Y17.145
X34.925Y1.905
X37.465Y17.145
X37.465Y1.905
X40.005Y17.145
X40.005Y1.905
T0
M30
