G04 (created by PCBNEW (2013-jun-18)-testing) date Sun 14 Jul 2013 06:48:57 PM EEST*
%MOIN*%
G04 Gerber Fmt 3.4, Leading zero omitted, Abs format*
%FSLAX34Y34*%
G01*
G70*
G90*
G04 APERTURE LIST*
%ADD10C,0.005906*%
%ADD11C,0.011811*%
%ADD12C,0.007874*%
%ADD13C,0.010000*%
%ADD14R,0.069024X0.069024*%
%ADD15C,0.069024*%
%ADD16C,0.067055*%
G04 APERTURE END LIST*
G54D10*
G54D11*
X14517Y2597D02*
X13926Y2597D01*
X13926Y2737D01*
X13954Y2821D01*
X14010Y2878D01*
X14067Y2906D01*
X14179Y2934D01*
X14264Y2934D01*
X14376Y2906D01*
X14432Y2878D01*
X14489Y2821D01*
X14517Y2737D01*
X14517Y2597D01*
X14517Y3187D02*
X13926Y3187D01*
X14517Y3468D02*
X13926Y3468D01*
X13926Y3693D01*
X13954Y3750D01*
X13982Y3778D01*
X14039Y3806D01*
X14123Y3806D01*
X14179Y3778D01*
X14207Y3750D01*
X14235Y3693D01*
X14235Y3468D01*
X13926Y4003D02*
X13926Y4368D01*
X14151Y4171D01*
X14151Y4256D01*
X14179Y4312D01*
X14207Y4340D01*
X14264Y4368D01*
X14404Y4368D01*
X14460Y4340D01*
X14489Y4312D01*
X14517Y4256D01*
X14517Y4087D01*
X14489Y4031D01*
X14460Y4003D01*
X13982Y4593D02*
X13954Y4621D01*
X13926Y4678D01*
X13926Y4818D01*
X13954Y4874D01*
X13982Y4902D01*
X14039Y4931D01*
X14095Y4931D01*
X14179Y4902D01*
X14517Y4565D01*
X14517Y4931D01*
X13517Y2203D02*
X12926Y2203D01*
X12926Y2428D01*
X12954Y2484D01*
X12982Y2512D01*
X13039Y2540D01*
X13123Y2540D01*
X13179Y2512D01*
X13207Y2484D01*
X13235Y2428D01*
X13235Y2203D01*
X13517Y3075D02*
X13517Y2793D01*
X12926Y2793D01*
X13460Y3609D02*
X13489Y3581D01*
X13517Y3496D01*
X13517Y3440D01*
X13489Y3356D01*
X13432Y3300D01*
X13376Y3271D01*
X13264Y3243D01*
X13179Y3243D01*
X13067Y3271D01*
X13010Y3300D01*
X12954Y3356D01*
X12926Y3440D01*
X12926Y3496D01*
X12954Y3581D01*
X12982Y3609D01*
X13460Y4199D02*
X13489Y4171D01*
X13517Y4087D01*
X13517Y4031D01*
X13489Y3946D01*
X13432Y3890D01*
X13376Y3862D01*
X13264Y3834D01*
X13179Y3834D01*
X13067Y3862D01*
X13010Y3890D01*
X12954Y3946D01*
X12926Y4031D01*
X12926Y4087D01*
X12954Y4171D01*
X12982Y4199D01*
X12926Y4396D02*
X12926Y4762D01*
X13151Y4565D01*
X13151Y4649D01*
X13179Y4706D01*
X13207Y4734D01*
X13264Y4762D01*
X13404Y4762D01*
X13460Y4734D01*
X13489Y4706D01*
X13517Y4649D01*
X13517Y4481D01*
X13489Y4424D01*
X13460Y4396D01*
X12982Y4987D02*
X12954Y5015D01*
X12926Y5071D01*
X12926Y5212D01*
X12954Y5268D01*
X12982Y5296D01*
X13039Y5324D01*
X13095Y5324D01*
X13179Y5296D01*
X13517Y4959D01*
X13517Y5324D01*
G54D12*
X3844Y3750D02*
G75*
G03X3844Y3750I-94J0D01*
G74*
G01*
G54D11*
X426Y5021D02*
X426Y5387D01*
X651Y5190D01*
X651Y5275D01*
X679Y5331D01*
X707Y5359D01*
X764Y5387D01*
X904Y5387D01*
X960Y5359D01*
X989Y5331D01*
X1017Y5275D01*
X1017Y5106D01*
X989Y5050D01*
X960Y5021D01*
X482Y5612D02*
X454Y5640D01*
X426Y5696D01*
X426Y5837D01*
X454Y5893D01*
X482Y5921D01*
X539Y5949D01*
X595Y5949D01*
X679Y5921D01*
X1017Y5584D01*
X1017Y5949D01*
X16017Y5387D02*
X16017Y5050D01*
X16017Y5218D02*
X15426Y5218D01*
X15510Y5162D01*
X15567Y5106D01*
X15595Y5050D01*
X15426Y5584D02*
X15426Y5978D01*
X16017Y5724D01*
X16017Y1887D02*
X16017Y1550D01*
X16017Y1718D02*
X15426Y1718D01*
X15510Y1662D01*
X15567Y1606D01*
X15595Y1550D01*
X15426Y2393D02*
X15426Y2281D01*
X15454Y2224D01*
X15482Y2196D01*
X15567Y2140D01*
X15679Y2112D01*
X15904Y2112D01*
X15960Y2140D01*
X15989Y2168D01*
X16017Y2224D01*
X16017Y2337D01*
X15989Y2393D01*
X15960Y2421D01*
X15904Y2449D01*
X15764Y2449D01*
X15707Y2421D01*
X15679Y2393D01*
X15651Y2337D01*
X15651Y2224D01*
X15679Y2168D01*
X15707Y2140D01*
X15764Y2112D01*
G54D12*
X16250Y1250D02*
X12250Y1250D01*
X250Y1250D02*
X4250Y1250D01*
X834Y1500D02*
G75*
G03X834Y1500I-84J0D01*
G74*
G01*
X250Y3250D02*
G75*
G03X750Y3750I0J500D01*
G74*
G01*
X750Y3750D02*
G75*
G03X250Y4250I-500J0D01*
G74*
G01*
X16250Y6250D02*
X12250Y6250D01*
X250Y4250D02*
X250Y6250D01*
X250Y6250D02*
X4250Y6250D01*
X16250Y6250D02*
X16250Y1250D01*
X250Y1250D02*
X250Y3250D01*
G54D13*
X11006Y6033D02*
X5927Y6033D01*
X6085Y1467D02*
X10573Y1467D01*
X4195Y7333D02*
X12305Y7333D01*
X12305Y167D02*
X4904Y167D01*
X11006Y6033D02*
X11006Y1900D01*
X5494Y2057D02*
X5494Y5600D01*
X5495Y2057D02*
X6085Y1467D01*
X12305Y167D02*
X12305Y7333D01*
X4195Y7333D02*
X4195Y876D01*
X4194Y876D02*
X4903Y167D01*
X11005Y1899D02*
X11831Y1073D01*
X11831Y1073D02*
X11398Y640D01*
X11400Y640D02*
X10574Y1466D01*
X5927Y6034D02*
X5101Y6860D01*
X5100Y6860D02*
X4667Y6427D01*
X4669Y6427D02*
X5495Y5601D01*
%LPC*%
G54D14*
X750Y750D03*
G54D15*
X1750Y750D03*
X2750Y750D03*
X3750Y750D03*
X4750Y750D03*
X5750Y750D03*
X6750Y750D03*
X7750Y750D03*
X8750Y750D03*
X9750Y750D03*
X10750Y750D03*
X11750Y750D03*
X12750Y750D03*
X13750Y750D03*
X14750Y750D03*
X15750Y750D03*
X15750Y6750D03*
X14750Y6750D03*
X13750Y6750D03*
X12750Y6750D03*
X11750Y6750D03*
X10750Y6750D03*
X9750Y6750D03*
X8750Y6750D03*
X7750Y6750D03*
X6750Y6750D03*
X5750Y6750D03*
X4750Y6750D03*
X3750Y6750D03*
X2750Y6750D03*
X1750Y6750D03*
X750Y6750D03*
G54D16*
X5250Y3250D03*
X6250Y4250D03*
X6250Y3250D03*
X5250Y2250D03*
X6250Y1250D03*
X6250Y2250D03*
X7250Y1250D03*
X7250Y2250D03*
X8250Y1250D03*
X8250Y2250D03*
X9250Y1250D03*
X9250Y2250D03*
X10250Y1250D03*
X11250Y2250D03*
X10250Y2250D03*
X11250Y3250D03*
X10250Y3250D03*
X11250Y4250D03*
X10250Y4250D03*
X11250Y5250D03*
X10250Y6250D03*
X10250Y5250D03*
X9250Y6250D03*
X9250Y5250D03*
X8250Y6250D03*
X8250Y5250D03*
X7250Y6250D03*
X5250Y4250D03*
X7250Y5250D03*
X6250Y6250D03*
X5250Y5250D03*
X6250Y5250D03*
M02*
