G04 (created by PCBNEW (2013-jun-18)-testing) date Sun 14 Jul 2013 06:48:57 PM EEST*
%MOIN*%
G04 Gerber Fmt 3.4, Leading zero omitted, Abs format*
%FSLAX34Y34*%
G01*
G70*
G90*
G04 APERTURE LIST*
%ADD10C,0.005906*%
%ADD11R,0.069024X0.069024*%
%ADD12C,0.069024*%
%ADD13C,0.067055*%
G04 APERTURE END LIST*
G54D10*
G54D11*
X750Y750D03*
G54D12*
X1750Y750D03*
X2750Y750D03*
X3750Y750D03*
X4750Y750D03*
X5750Y750D03*
X6750Y750D03*
X7750Y750D03*
X8750Y750D03*
X9750Y750D03*
X10750Y750D03*
X11750Y750D03*
X12750Y750D03*
X13750Y750D03*
X14750Y750D03*
X15750Y750D03*
X15750Y6750D03*
X14750Y6750D03*
X13750Y6750D03*
X12750Y6750D03*
X11750Y6750D03*
X10750Y6750D03*
X9750Y6750D03*
X8750Y6750D03*
X7750Y6750D03*
X6750Y6750D03*
X5750Y6750D03*
X4750Y6750D03*
X3750Y6750D03*
X2750Y6750D03*
X1750Y6750D03*
X750Y6750D03*
G54D13*
X5250Y3250D03*
X6250Y4250D03*
X6250Y3250D03*
X5250Y2250D03*
X6250Y1250D03*
X6250Y2250D03*
X7250Y1250D03*
X7250Y2250D03*
X8250Y1250D03*
X8250Y2250D03*
X9250Y1250D03*
X9250Y2250D03*
X10250Y1250D03*
X11250Y2250D03*
X10250Y2250D03*
X11250Y3250D03*
X10250Y3250D03*
X11250Y4250D03*
X10250Y4250D03*
X11250Y5250D03*
X10250Y6250D03*
X10250Y5250D03*
X9250Y6250D03*
X9250Y5250D03*
X8250Y6250D03*
X8250Y5250D03*
X7250Y6250D03*
X5250Y4250D03*
X7250Y5250D03*
X6250Y6250D03*
X5250Y5250D03*
X6250Y5250D03*
M02*
